<?xml version="1.0" encoding="UTF-8"?>
<svg width="40px" height="45px" viewBox="0 0 40 45" version="1.1" xmlns="http://www.w3.org/2000/svg"
>
    <g id="Welcome" stroke="none" stroke-width="1" fill="none" fill-rule="evenodd">
        <g id="Homepage" transform="translate(-40.000000, -27.000000)" fill="#32325C">
            <g id="Fill-2" transform="translate(40.000000, 27.000000)">
                <path d="M19.9736174,42.3345382 L3.59334591,32.8754809 L10.8674534,28.6755636 L19.5156772,33.6684929 C19.6574804,33.7502788 19.815401,33.7912456 19.9736174,33.7912456 C20.1316859,33.7912456 20.2899022,33.7502788 20.4314097,33.6684929 C20.7147205,33.5046255 20.8893499,33.2023284 20.8893499,32.875333 L20.8893499,23.9464785 L36.3519666,32.8754809 L19.9736174,42.3345382 Z M2.93817349,21.8430213 L2.93817349,13.4390159 L18.007139,22.3719333 L10.9188784,26.5733442 L2.93817349,21.8430213 Z M19.9736174,2.27483675 L36.3519666,11.7336616 L29.0784506,15.9338537 L20.4314097,10.9405336 C20.1479511,10.7769685 19.7991358,10.7769685 19.5156772,10.9405336 C19.2323664,11.1040987 19.057737,11.4065314 19.057737,11.7336616 L19.057737,20.6628965 L3.59334591,11.7336616 L19.9736174,2.27483675 Z M19.3174838,31.1703591 L12.7657597,27.5588554 L19.3174838,23.9464785 L19.3174838,31.1703591 Z M20.6278287,13.4390159 L27.1795528,17.0505197 L20.6278287,20.6628965 L20.6278287,13.4390159 Z M37.007139,22.7670107 L37.007139,31.1703591 L21.9381735,22.2379269 L29.0266033,18.0360308 L37.007139,22.7670107 Z M38.6086084,21.4850946 L30.9094118,17.0149878 L38.6086084,12.5448809 C38.8907208,12.3812682 39.0644644,12.0783256 39.0644644,11.750804 C39.0644644,11.4232824 38.8907208,11.1204878 38.6086084,10.956727 L20.4755207,0.42761914 C20.193261,0.263710287 19.8453321,0.263710287 19.5635141,0.42761914 L1.42851229,10.956727 C1.14654707,11.1204878 0.97265625,11.4232824 0.97265625,11.750804 L0.97265625,22.2790235 C0.97265625,22.6066931 1.14654707,22.9094877 1.42851229,23.0731004 L9.12800335,27.5427631 L1.42880678,32.0119815 C1.14654707,32.1760384 0.97265625,32.4786849 0.97265625,32.8065026 C0.97265625,33.1338762 1.14625259,33.4365227 1.42851229,33.6005796 L19.5635141,44.1298356 C19.7047176,44.2117159 19.8619702,44.252434 20.0195174,44.252434 C20.1769173,44.252434 20.3344644,44.2117159 20.4753734,44.1298356 L38.6086084,33.6005796 C38.8908681,33.4365227 39.0644644,33.1338762 39.0644644,32.8065026 L39.0644644,22.2790235 C39.0644644,21.9515019 38.8907208,21.6485593 38.6086084,21.4850946 Z"
                      id="Fill-1"></path>
            </g>
        </g>
    </g>
</svg>
